<svg xmlns="http://www.w3.org/2000/svg" width="40" height="40" viewBox="0 0 40 40">
  <ellipse cx="20" cy="22" rx="14" ry="13" fill="#6B5310" opacity="0.5"/>
  <ellipse cx="20" cy="20" rx="14" ry="13" fill="url(#g1)"/>
  <ellipse cx="20" cy="20" rx="11" ry="10.2" fill="none" stroke="#A07818" stroke-width="0.8"/>
  <!-- Trophy/chalice emblem -->
  <path d="M15 13h10v2c0 4-2 6.5-5 7.5-3-1-5-3.5-5-7.5z" fill="#7A5C12"/>
  <path d="M13 13h2v3c-1.5 0-2.5-1-2-3zm12 0h-2v3c1.5 0 2.5-1 2-3z" fill="#7A5C12" opacity="0.7"/>
  <rect x="18" y="22" width="4" height="2" rx="0.5" fill="#7A5C12"/>
  <rect x="16" y="24" width="8" height="1.5" rx="0.75" fill="#7A5C12"/>
  <ellipse cx="16" cy="15" rx="5" ry="3" fill="white" opacity="0.12"/>
  <defs>
    <linearGradient id="g1" x1="6" y1="7" x2="34" y2="33" gradientUnits="userSpaceOnUse">
      <stop offset="0%" stop-color="#F7E07A"/>
      <stop offset="35%" stop-color="#D4A636"/>
      <stop offset="70%" stop-color="#C49320"/>
      <stop offset="100%" stop-color="#A07818"/>
    </linearGradient>
  </defs>
</svg>
